<svg width="263" height="101" viewBox="0 0 263 101" fill="none" xmlns="http://www.w3.org/2000/svg">
<g clip-path="url(#clip0_546_630)">
<path d="M40.8622 20.2339L33.8838 16.893L35.0741 10.8174L37.5602 11.3024L36.7443 15.457L41.9629 17.9555L40.8622 20.2339Z" fill="#F9B117"/>
<path d="M41.1026 20.9069L33.3115 17.1799L34.6746 10.2236L38.1558 10.9033L37.3175 15.1728L42.6384 17.7192L41.0994 20.9069H41.1026ZM34.457 16.6087L40.6291 19.5604L41.2882 18.1914L36.1752 15.7472L36.9687 11.701L35.4745 11.4107L34.457 16.6087Z" fill="#141414"/>
<path d="M36.3189 12.3365C38.0613 12.3365 39.4737 10.9279 39.4737 9.19022C39.4737 7.45258 38.0613 6.04395 36.3189 6.04395C34.5765 6.04395 33.1641 7.45258 33.1641 9.19022C33.1641 10.9279 34.5765 12.3365 36.3189 12.3365Z" fill="#0E394F"/>
<path d="M36.3189 12.8405C34.2999 12.8405 32.6553 11.2035 32.6553 9.18684C32.6553 7.17016 34.2967 5.5332 36.3189 5.5332C38.341 5.5332 39.9824 7.17016 39.9824 9.18684C39.9824 11.2035 38.341 12.8405 36.3189 12.8405ZM36.3189 6.54473C34.8566 6.54473 33.6696 7.72858 33.6696 9.18684C33.6696 10.6451 34.8566 11.829 36.3189 11.829C37.7811 11.829 38.9681 10.6451 38.9681 9.18684C38.9681 7.72858 37.7811 6.54473 36.3189 6.54473Z" fill="#141414"/>
<path d="M32.5114 26.5707C33.8617 20.5813 39.8226 16.8192 45.8283 18.1658C47.7481 18.5966 49.5207 19.5283 50.9637 20.8621L56.7934 26.2676L76.8135 44.7273L50.7717 52.8099L24.7363 60.8926L30.758 34.2992L32.5114 26.5707Z" fill="#FACA3F"/>
<path d="M57.5902 26.9216L31.8076 34.9022L32.2012 33.1599C34.9049 32.6685 37.5126 31.74 39.9155 30.4125C44.219 28.1214 47.713 24.5667 49.9303 20.2334C50.6598 20.661 51.3414 21.1715 51.9557 21.7491L57.587 26.9216H57.5902Z" fill="#F99F00"/>
<path d="M229.926 93.53C226.553 93.53 223.379 92.2218 220.989 89.8477L218.708 87.5725C214.165 83.0414 206.773 83.0414 202.233 87.5725C199.84 89.9498 196.669 91.2581 193.293 91.2581H182.594V90.2466H193.29C196.397 90.2466 199.315 89.0436 201.513 86.8578C206.45 81.9341 214.484 81.9341 219.422 86.8578L221.7 89.1297C223.898 91.3155 226.819 92.5185 229.923 92.5185H246.446V93.53H229.919H229.926Z" fill="#141414"/>
<path d="M258.687 88.3349C256.227 83.6315 251.818 80.1055 246.129 80.1055C239.602 80.115 233.855 84.4005 232.002 90.642C231.503 92.3811 232.514 94.1935 234.258 94.6881C234.556 94.7711 234.863 94.8158 235.17 94.8126H253.258L259.164 94.3084" fill="#2C6E9B"/>
<path opacity="0.3" d="M236.616 90.6449C236.113 92.3808 237.118 94.1901 238.858 94.691C239.156 94.7772 239.466 94.8187 239.777 94.8187H235.147C233.333 94.8251 231.861 93.3636 231.854 91.5543C231.854 91.248 231.896 90.9417 231.979 90.6449C233.835 84.3938 239.591 80.1084 246.128 80.1084C246.906 80.1084 247.68 80.169 248.448 80.2903C242.832 81.1837 238.231 85.2107 236.616 90.6449Z" fill="#0E3964"/>
<path d="M257.122 95.3233H235.154C234.789 95.3233 234.427 95.269 234.079 95.1669C232.069 94.5734 230.92 92.4578 231.519 90.4571C231.576 90.2688 231.634 90.0837 231.698 89.8987C233.016 86.0504 235.758 82.9488 239.419 81.1587C243.079 79.3685 247.219 79.1069 251.078 80.4215C256.13 82.218 259.541 86.9183 259.708 92.2249H259.717V92.729C259.717 94.1618 258.552 95.3201 257.122 95.3201V95.3233ZM246.125 80.6066C243.981 80.6066 241.847 81.0948 239.863 82.0649C236.446 83.7369 233.887 86.6343 232.655 90.2273C232.597 90.3997 232.539 90.572 232.488 90.7475C232.05 92.2153 232.895 93.7661 234.366 94.2001C234.622 94.2767 234.888 94.3149 235.154 94.3149H257.122C257.951 94.3149 258.636 93.6736 258.696 92.8599V92.729C258.738 87.6459 255.542 83.086 250.739 81.3788C249.232 80.8651 247.674 80.6098 246.125 80.6098V80.6066Z" fill="#141414"/>
<path d="M35.2374 72.2875L43.7388 69.6582L48.743 85.7534C49.4726 88.0987 48.1575 90.5877 45.8058 91.3152C43.4541 92.0427 40.9583 90.7312 40.2288 88.3859L35.2246 72.2907H35.2406L35.2374 72.2875Z" fill="#FBD766"/>
<path d="M66.207 62.278L74.7212 59.6455L79.7255 75.7407C80.455 78.086 79.1399 80.575 76.7882 81.3025C74.4365 82.03 71.9408 80.7186 71.2113 78.3732L66.207 62.278Z" fill="#FBD766"/>
<path d="M44.4809 92.0275C43.6874 92.0275 42.8971 91.836 42.1739 91.4563C40.9997 90.8404 40.139 89.8066 39.7454 88.5429L34.5908 71.9691L35.0868 71.8096L44.0713 69.0303L49.2259 85.6105C50.0354 88.2175 48.57 90.9968 45.9559 91.8041C45.4696 91.9541 44.9736 92.0275 44.4777 92.0275H44.4809ZM35.8579 72.6265L40.7149 88.2398C41.0285 89.2449 41.7132 90.0682 42.6475 90.5596C43.5818 91.051 44.6505 91.1468 45.6583 90.8372C47.7381 90.1927 48.906 87.9813 48.2628 85.9072L43.4058 70.2939L35.8579 72.6297V72.6265Z" fill="#141414"/>
<path d="M75.4729 82.0079C73.3547 82.0079 71.387 80.6454 70.7278 78.5234L65.5732 61.9432L75.0569 59.0107L80.2116 75.5909C80.6051 76.8545 80.4803 78.1947 79.8628 79.3658C79.2453 80.5369 78.2086 81.3953 76.9415 81.7878C76.452 81.9377 75.9592 82.0111 75.4729 82.0111V82.0079ZM66.8403 62.6101L71.6941 78.2235C72.3405 80.2976 74.5578 81.4655 76.6376 80.8209C77.6454 80.5082 78.4709 79.8253 78.9637 78.8936C79.4564 77.9618 79.5556 76.896 79.2421 75.8909L74.385 60.2776L66.8371 62.6133L66.8403 62.6101Z" fill="#141414"/>
<path opacity="0.7" d="M40.0976 82.32C39.7936 82.32 39.5153 82.1253 39.4193 81.8222L37.7427 76.4263C37.6275 76.0529 37.8355 75.6573 38.2098 75.5424C38.5842 75.4275 38.9809 75.6349 39.0961 76.0083L40.7727 81.4042C40.8879 81.7775 40.6799 82.1732 40.3056 82.2881C40.2352 82.3104 40.1648 82.32 40.0944 82.32H40.0976Z" fill="white"/>
<path d="M37.8296 65.2069L68.5236 55.7139L74.6765 75.4978C76.1675 80.2938 73.4799 85.3897 68.6676 86.8767L55.3636 90.993C50.5545 92.48 45.4447 89.7996 43.9537 85.0004L37.8008 65.2165L37.8296 65.2069Z" fill="#FACA3F"/>
<path d="M71.2183 64.4089L40.5234 73.9023L41.6911 77.6572L72.386 68.1637L71.2183 64.4089Z" fill="#F7B000"/>
<path d="M52.666 91.9056C48.5609 91.9056 44.7469 89.2603 43.4671 85.1504L37.167 64.8878L37.6789 64.7251L68.8561 55.082L75.1594 75.3478C76.7304 80.4022 73.8859 85.7917 68.8177 87.3585L55.5137 91.4748C54.5666 91.7684 53.6099 91.9056 52.6692 91.9056H52.666ZM38.434 65.5484L44.4366 84.8504C45.8444 89.372 50.6758 91.912 55.2129 90.508L68.517 86.3916C73.0508 84.9876 75.5978 80.1693 74.1899 75.6445L68.1874 56.3457L38.4308 65.5484H38.434Z" fill="#141414"/>
<path d="M24.5696 61.6361L30.2617 34.1971L32.0151 26.4591C32.6967 23.4308 34.5205 20.8494 37.1506 19.1901C39.7806 17.5308 42.9003 16.9915 45.9367 17.6712C47.9429 18.1211 49.7987 19.0975 51.3057 20.492L57.1354 25.8975L77.2739 44.9506L24.5664 61.6361H24.5696ZM43.361 18.3987C41.3709 18.3987 39.4159 18.9603 37.6913 20.0484C35.2916 21.5641 33.6246 23.9223 33.0006 26.6856L31.2472 34.4141L25.9071 60.1523L75.3317 44.5071L56.4411 26.6378L50.6146 21.2355C49.2388 19.9623 47.543 19.072 45.7128 18.6604C44.9289 18.4849 44.1417 18.3987 43.3578 18.3987H43.361Z" fill="#141414"/>
<path d="M63.7757 23.8708L24.3388 36.1584C20.8304 37.2516 18.8749 40.9741 19.971 44.4729L28.3141 71.1051C29.4102 74.6039 33.1428 76.5541 36.6512 75.461L76.0881 63.1734C79.5965 62.0803 81.552 58.3578 80.4559 54.859L72.1128 28.2268C71.0167 24.728 67.284 22.7777 63.7757 23.8708Z" fill="#F9B117"/>
<path opacity="0.5" d="M79.2194 52.8066L79.8465 54.8265C80.928 58.3047 78.9794 61.9998 75.4886 63.0815L36.2515 75.2071C32.7607 76.2857 29.0556 74.3424 27.9709 70.861L27.3438 68.8412C28.4284 72.3193 32.1336 74.2658 35.6212 73.1872L74.8647 61.0616C78.3427 60.0022 80.3008 56.3295 79.2386 52.8609C79.2322 52.8417 79.2258 52.8258 79.2226 52.8066H79.2194Z" fill="#E59303"/>
<path d="M63.8944 27.5358L26.3388 39.2372C24.2338 39.8931 23.0605 42.1266 23.7181 44.2259L31.5346 69.1768C32.1922 71.2761 34.4318 72.4463 36.5368 71.7904L74.0925 60.089C76.1975 59.4331 77.3708 57.1996 76.7131 55.1003L68.8967 30.1494C68.239 28.0501 65.9995 26.88 63.8944 27.5358Z" fill="#0E394F"/>
<path d="M75.0155 51.5273L76.1258 55.0629C76.7753 57.153 75.6043 59.3707 73.5085 60.0185L36.1496 71.5729C34.0539 72.2207 31.8269 71.0528 31.1742 68.9627L30.0703 65.4271C30.7198 67.514 32.9468 68.6819 35.0393 68.0341L72.4014 56.4765C74.4908 55.8288 75.6618 53.6174 75.0155 51.5305V51.5273Z" fill="#062538"/>
<path d="M42.6669 46.259C43.486 46.0038 44.3595 46.4633 44.6123 47.2801L46.5161 53.4036C46.772 54.2205 46.3113 55.0916 45.4922 55.3437C44.6731 55.599 43.7996 55.1395 43.5468 54.3226L41.643 48.1991C41.387 47.3823 41.8478 46.5111 42.6669 46.259Z" fill="#4CF58C"/>
<path d="M53.7607 42.8294C54.5798 42.5741 55.4533 43.0336 55.706 43.8505L57.6098 49.9739C57.8658 50.7908 57.405 51.6619 56.5859 51.914C55.7668 52.1693 54.8933 51.7098 54.6405 50.8929L52.7368 44.7695C52.4808 43.9526 52.9415 43.0814 53.7607 42.8294Z" fill="#4CF58C"/>
<path d="M33.8263 41.3001C34.0406 41.9862 33.6535 42.7169 32.9656 42.9307L27.9773 44.4751C27.2894 44.6889 26.5567 44.3028 26.3423 43.6168C26.128 42.9307 26.5151 42.2 27.203 41.9862L32.1913 40.4418C32.8792 40.228 33.6119 40.6141 33.8263 41.3001Z" fill="#185472"/>
<path d="M35.98 41.9328C36.6674 41.9328 37.2247 41.377 37.2247 40.6915C37.2247 40.0059 36.6674 39.4502 35.98 39.4502C35.2926 39.4502 34.7354 40.0059 34.7354 40.6915C34.7354 41.377 35.2926 41.9328 35.98 41.9328Z" fill="#185472"/>
<path d="M28.6364 35.5886L36.6195 33.1188C37.1026 32.9688 37.6178 33.2368 37.7649 33.7187C37.9153 34.2005 37.6434 34.7111 37.1602 34.861L29.1771 37.3308C28.694 37.4808 28.1789 37.2128 28.0317 36.7309C27.8813 36.2491 28.1533 35.7385 28.6364 35.5886Z" fill="#FFCB6E"/>
<path d="M39.1566 34.1909C39.6832 34.1909 40.1101 33.7651 40.1101 33.24C40.1101 32.7148 39.6832 32.2891 39.1566 32.2891C38.63 32.2891 38.2031 32.7148 38.2031 33.24C38.2031 33.7651 38.63 34.1909 39.1566 34.1909Z" fill="#FFCB6E"/>
<path d="M39.3751 24.5165L43.797 23.1476C44.1009 23.0518 44.4241 23.2242 44.5201 23.5273C44.6161 23.8304 44.4433 24.1527 44.1393 24.2485L39.7174 25.6174C39.4135 25.7131 39.0903 25.5408 38.9943 25.2376C38.8983 24.9345 39.0711 24.6122 39.3751 24.5165Z" fill="#F7B40D"/>
<path d="M38.8272 22.7518L43.2491 21.3829C43.5531 21.2872 43.8762 21.4595 43.9722 21.7626C44.0682 22.0658 43.8954 22.3881 43.5915 22.4838L39.1696 23.8527C38.8656 23.9485 38.5425 23.7761 38.4465 23.473C38.3505 23.1699 38.5233 22.8476 38.8272 22.7518Z" fill="#F7B40D"/>
<path d="M62.175 78.1162L55.4089 80.2089C54.9431 80.3529 54.6825 80.8463 54.827 81.3109L54.828 81.314C54.9724 81.7785 55.4672 82.0383 55.933 81.8943L62.6991 79.8016C63.1649 79.6575 63.4254 79.1641 63.281 78.6996L63.28 78.6965C63.1356 78.2319 62.6408 77.9721 62.175 78.1162Z" fill="#F7B40D"/>
<path d="M55.1333 77.6674L61.9261 75.5486C62.3965 75.4019 62.8956 75.6635 63.0428 76.1294C63.19 76.5953 62.9276 77.0931 62.4572 77.2399L55.6644 79.3586C55.1941 79.5054 54.6949 79.2438 54.5478 78.7779C54.4006 78.312 54.6629 77.8142 55.1333 77.6674Z" fill="#F7B40D"/>
<path d="M34.6748 76.2701C31.6255 76.2701 28.7907 74.3108 27.834 71.2571L19.4893 44.6222C18.9198 42.8002 19.0926 40.8665 19.9821 39.1753C20.8716 37.4841 22.3658 36.2396 24.1896 35.6716L63.6282 23.3801C65.452 22.8121 67.3942 22.9844 69.09 23.8715C70.7858 24.7585 72.0337 26.2487 72.6032 28.0676L80.9478 54.7024C81.5174 56.5245 81.3446 58.4582 80.4551 60.1494C79.5656 61.8406 78.0714 63.0851 76.2476 63.6531L36.8089 75.9446C36.1018 76.1648 35.3819 76.2701 34.678 76.2701H34.6748ZM65.772 24.0693C65.1545 24.0693 64.5369 24.1618 63.9322 24.3501L24.4936 36.6416C22.9257 37.1299 21.6459 38.1956 20.8844 39.6475C20.1229 41.0994 19.9725 42.7555 20.462 44.3191L28.8067 70.954C29.8177 74.18 33.2701 75.9829 36.505 74.9746L75.9436 62.683C77.5114 62.1948 78.7913 61.129 79.5528 59.6771C80.3143 58.2252 80.4647 56.5691 79.9752 55.0056L71.6305 28.3707C71.141 26.8071 70.0723 25.5308 68.6165 24.7713C67.7238 24.3054 66.7511 24.0693 65.772 24.0693Z" fill="#141414"/>
<path opacity="0.2" d="M207.182 95.6969C207.182 98.6262 147.045 101 94.7283 101C42.4111 101 0 98.6262 0 95.6969C0 92.7676 42.4079 90.3936 94.7251 90.3936C147.042 90.3936 207.179 92.7676 207.179 95.6969H207.182Z" fill="#0E394F"/>
<path opacity="0.2" d="M263 95.6966C263 96.8836 253.375 97.8473 245.002 97.8473C236.628 97.8473 229.842 96.8836 229.842 95.6966C229.842 94.5096 236.628 93.5459 245.002 93.5459C253.375 93.5459 263 94.5096 263 95.6966Z" fill="#0E394F"/>
<path d="M188.823 0.503906H84.7708C83.2541 0.503906 81.9551 1.59521 81.6959 3.08539L69.6205 82.2082C69.3294 83.9026 70.4716 85.5109 72.1706 85.8012C72.3434 85.83 72.5194 85.8459 72.6954 85.8459H180.724C182.212 85.8363 183.486 84.7769 183.764 83.3187L196.262 9.48005C197.036 5.36692 194.323 1.40695 190.199 0.634735C189.747 0.54858 189.287 0.507097 188.826 0.503906H188.823Z" fill="#0E3964"/>
<path d="M72.6953 86.3503C72.4905 86.3503 72.2857 86.3312 72.0842 86.2993C70.1132 85.9611 68.7854 84.088 69.1213 82.1223L81.1967 3.00907C81.5007 1.26362 83.0045 0 84.7707 0H188.826C189.315 0 189.808 0.0478643 190.288 0.140402C192.416 0.539271 194.259 1.73907 195.481 3.52281C196.703 5.30655 197.155 7.45406 196.755 9.57605L184.26 83.4051C183.937 85.1059 182.449 86.3408 180.724 86.3535H72.6953V86.3503ZM84.7707 1.01153C83.4973 1.01153 82.4126 1.92414 82.195 3.175L70.1196 82.2851C69.8732 83.7114 70.8331 85.0612 72.2538 85.3037C72.3977 85.3292 72.5449 85.342 72.6953 85.342H180.721C181.959 85.3324 183.031 84.4453 183.262 83.2264L195.756 9.40054C196.108 7.53384 195.711 5.65437 194.643 4.09399C193.574 2.53362 191.958 1.48379 190.099 1.13598C189.68 1.05621 189.248 1.01791 188.819 1.01472H84.7707V1.01153Z" fill="#141414"/>
<path d="M188.944 0.503906H80.4191C78.0929 0.503906 76.106 2.17277 75.7124 4.46069L63.2402 85.8459H177.797L191.629 3.73315C191.907 2.25574 190.934 0.832574 189.453 0.551771C189.286 0.519861 189.114 0.503906 188.944 0.503906Z" fill="#2C6E9B"/>
<path d="M178.229 86.3503H62.6553L62.7449 85.7696L75.2138 4.38437C75.6522 1.84118 77.8375 0 80.4164 0H188.945C189.146 0 189.351 0.0191457 189.546 0.0574371C190.397 0.216985 191.133 0.698818 191.62 1.4104C192.106 2.12198 192.288 2.98035 192.125 3.82914L178.226 86.3535L178.229 86.3503ZM63.8327 85.3388H177.372L191.13 3.65045C191.242 3.05693 191.117 2.46661 190.784 1.97839C190.449 1.49017 189.943 1.15832 189.361 1.04982C189.226 1.0243 189.085 1.01153 188.948 1.01153H80.4196C78.3335 1.01153 76.5673 2.49852 76.2153 4.54711L63.8359 85.342L63.8327 85.3388Z" fill="#141414"/>
<path d="M185.976 6.56738H81.1751L70.1172 79.7838H173.846L185.976 6.56738Z" fill="#0E394F"/>
<path d="M186.276 6.67871L185.703 9.71011H80.9473L81.4688 6.67871H186.276Z" fill="#062538"/>
<path d="M84.1633 6.56738L73.1021 79.7838H70.0625L81.1236 6.56738H84.1633Z" fill="#062538"/>
<path d="M96.0788 14.6846H90.4443L89.7275 16.8129H95.8004L96.0788 14.6846Z" fill="#4CF58C"/>
<path d="M104.183 14.6846H98.0432L97.3232 16.8129H103.399L104.183 14.6846Z" fill="#4CF58C"/>
<path d="M111.273 14.6846H105.642L105.431 16.8129H110.489L111.273 14.6846Z" fill="#4CF58C"/>
<path d="M116.085 14.6846H113.999L113.279 16.8129H115.807L116.085 14.6846Z" fill="#4CF58C"/>
<path d="M88.7319 14.6846H86.6457L85.9258 16.8129L88.2455 16.8831L88.7319 14.6846Z" fill="#4CF58C"/>
<path d="M95.0641 19.2314H89.4328L88.7129 21.3598H94.7858L95.0641 19.2314Z" fill="#4CF58C"/>
<path d="M102.664 19.2314H97.0324L96.3125 21.3598H102.385L102.664 19.2314Z" fill="#4CF58C"/>
<path d="M110.263 19.2314H104.628L104.417 21.3598H109.984L110.263 19.2314Z" fill="#4CF58C"/>
<path d="M114.569 19.2314H112.48L111.76 21.3598H114.287L114.569 19.2314Z" fill="#4CF58C"/>
<path d="M87.7211 19.2314H85.6318L84.915 21.3598H87.3596L87.7211 19.2314Z" fill="#4CF58C"/>
<path d="M13.966 85.3389H129.601V95.9488H17.876C14.0492 95.9488 10.9456 92.8599 10.9424 89.0436C10.9424 89.0436 10.9424 89.0404 10.9424 89.0372V88.3543C10.952 86.6918 12.299 85.3452 13.966 85.3389Z" fill="#19517F"/>
<path opacity="0.3" d="M129.601 91.9092V95.9521H17.8699C14.0431 95.9521 10.9427 92.8569 10.9395 89.0405V88.3576C10.9395 87.9013 11.0418 87.4514 11.2434 87.043C12.1489 89.934 14.8334 91.9028 17.8699 91.9092H129.601Z" fill="#0E3964"/>
<path opacity="0.3" d="M179.249 82.3105V85.3388H63.333L63.7554 82.3105H179.249Z" fill="#0E3964"/>
<path d="M46.0205 85.3389H87.0526C87.0526 88.4086 84.5569 90.8943 81.482 90.8943H51.5943C48.5162 90.8943 46.0237 88.4054 46.0237 85.3389H46.0205Z" fill="#0E3964"/>
<path d="M81.4788 91.4019H51.591C48.2378 91.4019 45.5117 88.6833 45.5117 85.3391V84.835H87.5549V85.3391C87.5549 88.6833 84.8288 91.4019 81.4756 91.4019H81.4788ZM46.5516 85.8465C46.8076 88.3961 48.9705 90.3936 51.591 90.3936H81.4788C84.0993 90.3936 86.2654 88.3961 86.5182 85.8465H46.5516Z" fill="#141414"/>
<path d="M185.93 6.56738L173.8 79.7838H70.0908L184.506 6.56738H185.93Z" fill="#062538"/>
<path d="M189.219 28.1273L188.287 34.0959C188.211 34.5817 188.544 35.0368 189.03 35.1123C189.516 35.1878 189.972 34.8552 190.048 34.3693L190.98 28.4008C191.055 27.915 190.723 27.4599 190.236 27.3844C189.75 27.3089 189.294 27.6415 189.219 28.1273Z" fill="#062C4C"/>
<path d="M190.973 16.8901L190.041 22.8586C189.965 23.3444 190.298 23.7995 190.784 23.875C191.27 23.9505 191.726 23.6179 191.802 23.1321L192.733 17.1635C192.809 16.6777 192.477 16.2226 191.99 16.1471C191.504 16.0716 191.048 16.4042 190.973 16.8901Z" fill="#062C4C"/>
<path d="M67.6596 87.2314H61.6027C61.1096 87.2314 60.71 87.6293 60.71 88.1201C60.71 88.6109 61.1096 89.0088 61.6027 89.0088H67.6596C68.1526 89.0088 68.5523 88.6109 68.5523 88.1201C68.5523 87.6293 68.1526 87.2314 67.6596 87.2314Z" fill="#141414"/>
<path d="M19.2904 85.3711H31.6058C32.3513 85.3711 32.9528 85.9742 32.9528 86.7145C32.9528 87.458 32.3481 88.0579 31.6058 88.0579H19.2904C18.5449 88.0579 17.9434 87.4548 17.9434 86.7145C17.9434 85.971 18.5481 85.3711 19.2904 85.3711Z" fill="#2C6E9B"/>
<path d="M35.4554 88.0579C36.1994 88.0579 36.8025 87.4564 36.8025 86.7145C36.8025 85.9725 36.1994 85.3711 35.4554 85.3711C34.7115 85.3711 34.1084 85.9725 34.1084 86.7145C34.1084 87.4564 34.7115 88.0579 35.4554 88.0579Z" fill="#2C6E9B"/>
<path d="M68.8524 57.587L70.753 45.4519C70.8681 44.7179 71.5561 44.217 72.292 44.3318C73.0279 44.4467 73.5302 45.1328 73.415 45.8667L71.5145 58.0019C71.3993 58.7358 70.7114 59.2368 69.9754 59.1219C69.2395 59.007 68.7372 58.321 68.8524 57.587Z" fill="#4D9AC4"/>
<path d="M72.6761 43.2083C73.4201 43.2083 74.0232 42.6068 74.0232 41.8649C74.0232 41.1229 73.4201 40.5215 72.6761 40.5215C71.9322 40.5215 71.3291 41.1229 71.3291 41.8649C71.3291 42.6068 71.9322 43.2083 72.6761 43.2083Z" fill="#4D9AC4"/>
<path d="M95.9378 2.0166H83.6224C82.8785 2.0166 82.2754 2.61806 82.2754 3.35999C82.2754 4.10193 82.8785 4.70338 83.6224 4.70338H95.9378C96.6818 4.70338 97.2848 4.10193 97.2848 3.35999C97.2848 2.61806 96.6818 2.0166 95.9378 2.0166Z" fill="#4D9AC4"/>
<path d="M99.7865 4.70338C100.53 4.70338 101.134 4.10193 101.134 3.35999C101.134 2.61806 100.53 2.0166 99.7865 2.0166C99.0425 2.0166 98.4395 2.61806 98.4395 3.35999C98.4395 4.10193 99.0425 4.70338 99.7865 4.70338Z" fill="#4D9AC4"/>
<path d="M124.536 5.01578C125.376 5.01578 126.056 4.33718 126.056 3.50008C126.056 2.66298 125.376 1.98438 124.536 1.98438C123.697 1.98438 123.017 2.66298 123.017 3.50008C123.017 4.33718 123.697 5.01578 124.536 5.01578Z" fill="#F95D5D"/>
<path d="M47.9047 82.8145H36.2549V85.3417H47.9047V82.8145Z" fill="#033156"/>
<path d="M30.3168 82.8145H18.667V85.3417H30.3168V82.8145Z" fill="#033156"/>
<path d="M65.4868 82.8145H53.8369V85.3417H65.4868V82.8145Z" fill="#033156"/>
<path d="M83.0756 82.8145H71.4258V85.3417H83.0756V82.8145Z" fill="#033156"/>
<path d="M100.657 82.8145H89.0068V85.3417H100.657V82.8145Z" fill="#033156"/>
<path d="M118.246 82.8145H106.596V85.3417H118.246V82.8145Z" fill="#033156"/>
<path d="M135.828 82.8145H124.178V85.3417H135.828V82.8145Z" fill="#033156"/>
<path d="M171.138 82.8145H159.488V85.3417H171.138V82.8145Z" fill="#033156"/>
<path d="M153.48 82.8916H141.83V85.4188H153.48V82.8916Z" fill="#033156"/>
<path d="M48.4102 85.8461H35.7461V82.3105H48.4102V85.8461ZM36.7604 84.8346H47.3991V83.3189H36.7604V84.8346Z" fill="#141414"/>
<path d="M30.8253 85.8461H18.1611V82.3105H30.8253V85.8461ZM19.1754 84.8346H29.8142V83.3189H19.1722V84.8346H19.1754Z" fill="#141414"/>
<path d="M65.9923 85.8461H53.3281V82.3105H65.9923V85.8461ZM54.3424 84.8346H64.9812V83.3189H54.3424V84.8346Z" fill="#141414"/>
<path d="M83.5811 85.8461H70.917V82.3105H83.5811V85.8461ZM71.9313 84.8346H82.57V83.3189H71.9313V84.8346Z" fill="#141414"/>
<path d="M101.163 85.8461H88.499V82.3105H101.163V85.8461ZM89.5133 84.8346H100.152V83.3189H89.5133V84.8346Z" fill="#141414"/>
<path d="M118.751 85.8461H106.087V82.3105H118.751V85.8461ZM107.101 84.8346H117.74V83.3189H107.101V84.8346Z" fill="#141414"/>
<path d="M136.333 85.8461H123.669V82.3105H136.333V85.8461ZM124.683 84.8346H135.322V83.3189H124.683V84.8346Z" fill="#141414"/>
<path d="M171.648 85.8461H158.983V82.3105H171.648V85.8461ZM159.998 84.8346H170.636V83.3189H159.998V84.8346Z" fill="#141414"/>
<path d="M153.988 85.9223H141.324V82.3867H153.988V85.9223ZM142.338 84.9108H152.977V83.3951H142.338V84.9108Z" fill="#141414"/>
<path d="M174.223 80.2872H69.4766L80.6881 6.0625H186.522L174.223 80.2904V80.2872ZM70.654 79.2757H173.362L185.326 7.07084H81.5616L70.6572 79.2757H70.654Z" fill="#141414"/>
<path d="M171.565 14.9368H128.002C125.861 14.9336 124.044 16.494 123.727 18.6032L119.497 46.5911C119.142 48.946 120.767 51.1382 123.125 51.4924C123.34 51.5243 123.554 51.5402 123.772 51.5402H166.944C169.062 51.5434 170.87 50.0181 171.216 47.9345L175.855 19.9466C176.246 17.5981 174.652 15.3804 172.297 14.9943C172.054 14.956 171.811 14.9336 171.565 14.9368Z" fill="white"/>
<path d="M175.775 19.9559L171.139 47.9373C170.793 50.0178 168.989 51.5431 166.874 51.5431H123.705C121.67 51.5431 119.91 50.1295 119.475 48.1479L171.376 14.9365H171.513C173.904 14.9397 175.836 16.8766 175.83 19.2603C175.83 19.4932 175.81 19.7261 175.772 19.9559H175.775Z" fill="#F4F3F2"/>
<path d="M17.8695 96.453C15.8858 96.453 14.0204 95.6839 12.6157 94.2863C11.2111 92.8855 10.4368 91.0251 10.4336 89.0436V88.3575C10.4432 86.4238 12.027 84.8475 13.9628 84.8379H130.109V96.4561H17.8695V96.453ZM13.9628 85.843C12.5805 85.8526 11.4511 86.979 11.4447 88.3575V89.0372C11.4447 90.7539 12.1166 92.3622 13.3293 93.5715C14.5419 94.7809 16.1545 95.4446 17.8695 95.4446H129.095V85.8462H13.966L13.9628 85.843Z" fill="#141414"/>
<path d="M124.284 85.3389H183.045C185.982 85.3389 188.363 87.7129 188.363 90.6422C188.363 93.5715 185.982 95.9456 183.045 95.9456H124.284C121.346 95.9456 118.966 93.5715 118.966 90.6422C118.966 87.7129 121.346 85.3389 124.284 85.3389Z" fill="#0E3964"/>
<path d="M181.394 89.7549H175.337C174.844 89.7549 174.444 90.1528 174.444 90.6436C174.444 91.1344 174.844 91.5322 175.337 91.5322H181.394C181.887 91.5322 182.287 91.1344 182.287 90.6436C182.287 90.1528 181.887 89.7549 181.394 89.7549Z" fill="#141414"/>
<path d="M169.984 89.7549H163.927C163.434 89.7549 163.034 90.1528 163.034 90.6436C163.034 91.1344 163.434 91.5322 163.927 91.5322H169.984C170.477 91.5322 170.876 91.1344 170.876 90.6436C170.876 90.1528 170.477 89.7549 169.984 89.7549Z" fill="#141414"/>
<path d="M183.045 96.4525H124.284C121.071 96.4525 118.457 93.8455 118.457 90.6418C118.457 87.4381 121.071 84.8311 124.284 84.8311H183.045C186.257 84.8311 188.871 87.4381 188.871 90.6418C188.871 93.8455 186.257 96.4525 183.045 96.4525ZM124.284 85.8426C121.631 85.8426 119.471 87.9965 119.471 90.6418C119.471 93.2871 121.631 95.441 124.284 95.441H183.045C185.697 95.441 187.857 93.2871 187.857 90.6418C187.857 87.9965 185.697 85.8426 183.045 85.8426H124.284Z" fill="#141414"/>
<path d="M33.1229 30.1541C33.1069 30.1541 33.0909 30.1541 33.0749 30.1509C32.9373 30.1254 32.8477 29.9913 32.8765 29.8541L33.318 27.6173C33.3436 27.4801 33.478 27.3907 33.6156 27.4194C33.7532 27.445 33.8428 27.579 33.814 27.7162L33.3724 29.9531C33.35 30.0743 33.2412 30.1573 33.1229 30.1573V30.1541Z" fill="white"/>
<path d="M33.705 27.1358C33.8835 27.1358 34.0282 26.9915 34.0282 26.8135C34.0282 26.6355 33.8835 26.4912 33.705 26.4912C33.5265 26.4912 33.3818 26.6355 33.3818 26.8135C33.3818 26.9915 33.5265 27.1358 33.705 27.1358Z" fill="white"/>
<path d="M70.5132 37.5956C70.2956 37.5956 70.0972 37.4552 70.03 37.2382L67.9023 30.3873C67.3359 28.594 65.4066 27.5697 63.5988 28.1089L54.8606 30.8149C54.595 30.8978 54.3102 30.7478 54.227 30.483C54.1439 30.2182 54.2942 29.9342 54.5598 29.8512L63.3044 27.1421C65.6465 26.4433 68.1422 27.7643 68.8718 30.0841L70.9995 36.9351C71.0827 37.2 70.9323 37.4839 70.6667 37.5669C70.6156 37.5829 70.5676 37.5892 70.5164 37.5892L70.5132 37.5956Z" fill="#141414"/>
<path d="M45.2971 33.7475C45.0827 33.7475 44.8811 33.6071 44.814 33.3933C44.7308 33.1285 44.8812 32.8445 45.1467 32.7615L50.938 30.9682C51.2036 30.8852 51.4884 31.0352 51.5716 31.3C51.6548 31.5649 51.5044 31.8489 51.2388 31.9319L45.4475 33.7252C45.3963 33.7411 45.3483 33.7475 45.2971 33.7475Z" fill="#141414"/>
<path d="M34.9686 72.2556C33.0552 72.2556 31.2794 71.0239 30.6843 69.1094L22.97 44.2933C22.2405 41.9384 23.5651 39.4303 25.9232 38.6996L42.0782 33.7026C42.3437 33.6196 42.6285 33.7696 42.7117 34.0344C42.7949 34.3025 42.6445 34.5833 42.3789 34.6662L26.224 39.6633C24.397 40.2281 23.3731 42.1713 23.9395 43.9934L31.6538 68.8062C32.2201 70.6283 34.1687 71.6494 35.9957 71.0846L66.389 61.684C66.6545 61.6011 66.9393 61.751 67.0225 62.0159C67.1057 62.2839 66.9553 62.5647 66.6897 62.6477L36.2964 72.0482C35.8549 72.1854 35.4101 72.2493 34.9718 72.2493L34.9686 72.2556Z" fill="#141414"/>
<path d="M134.436 38.5947H128.801L128.081 40.7295H134.157L134.436 38.5947Z" fill="#FBD766"/>
<path d="M142.54 38.5947H136.4L135.687 40.7295H141.753L142.54 38.5947Z" fill="#FBD766"/>
<path d="M149.63 38.5947H143.999L143.791 40.7295H148.846L149.63 38.5947Z" fill="#FBD766"/>
<path d="M154.443 38.5947H152.357L151.644 40.7295H154.165L154.443 38.5947Z" fill="#FBD766"/>
<path d="M127.089 38.5947H125.003L124.283 40.7295L126.603 40.7933L127.089 38.5947Z" fill="#FBD766"/>
<path d="M133.422 43.1416H127.79L127.07 45.2732H133.143L133.422 43.1416Z" fill="#FBD766"/>
<path d="M141.021 43.1416H135.386L134.673 45.2732H140.743L141.021 43.1416Z" fill="#FBD766"/>
<path d="M148.62 43.1416H142.985L142.777 45.2732H148.341L148.62 43.1416Z" fill="#FBD766"/>
<path d="M152.923 43.1416H150.837L150.123 45.2732H152.644L152.923 43.1416Z" fill="#FBD766"/>
<path d="M126.078 43.1416H123.988L123.269 45.2732H125.716L126.078 43.1416Z" fill="#FBD766"/>
<path d="M166.953 51.8723H123.768C123.538 51.8723 123.307 51.8564 123.077 51.8213C120.543 51.4416 118.789 49.0739 119.17 46.5434L123.4 18.5556C123.736 16.3028 125.71 14.6084 127.995 14.6084H171.564C171.826 14.6084 172.092 14.6275 172.351 14.669C174.882 15.087 176.6 17.4771 176.181 20.0011L171.542 47.9889C171.171 50.2386 169.241 51.8691 166.953 51.8691V51.8723ZM123.771 51.215H166.953C168.915 51.215 170.572 49.8142 170.892 47.8836L175.532 19.8958C175.89 17.7291 174.415 15.6774 172.242 15.32C172.018 15.2849 171.791 15.2689 171.567 15.2657H127.995C126.037 15.2657 124.341 16.7208 124.053 18.6545L119.823 46.6424C119.496 48.8122 121 50.8448 123.176 51.1703C123.374 51.199 123.582 51.2054 123.771 51.215Z" fill="#141414"/>
</g>
<defs>
<clipPath id="clip0_546_630">
<rect width="263" height="101" fill="white"/>
</clipPath>
</defs>
</svg>
